<svg class="svg-icon" style="width: 1em; height: 1em;vertical-align: middle;fill: #0563bb;overflow: hidden;" viewBox="0 0 1024 1024" version="1.1" xmlns="http://www.w3.org/2000/svg"><path d="M170.666667 256a85.333333 85.333333 0 0 1 85.333333-85.333333h512a85.333333 85.333333 0 0 1 85.333333 85.333333v512a85.333333 85.333333 0 0 1-85.333333 85.333333H256a85.333333 85.333333 0 0 1-85.333333-85.333333V256z m512 85.333333a42.666667 42.666667 0 0 0-42.666667 42.666667v256a42.666667 42.666667 0 0 0 85.333333 0V384a42.666667 42.666667 0 0 0-42.666666-42.666667z m-201.898667 15.36a42.666667 42.666667 0 1 0-65.536 54.613334L463.573333 469.333333H298.666667a42.666667 42.666667 0 0 0 0 85.333334h164.906666l-48.341333 58.026666a42.666667 42.666667 0 0 0 65.536 54.613334l106.666667-128a42.581333 42.581333 0 0 0 0-54.613334l-106.666667-128z"  /></svg>